HIERARCHY
ROOT hip
{
  OFFSET 0.00112043 5.09927 -9.65472
  CHANNELS 6 Xposition Yposition Zposition Zrotation Xrotation Yrotation
  JOINT abdomen
  {
    OFFSET 0 -1.186 -1.5018
    CHANNELS 3 Zrotation Xrotation Yrotation
    JOINT abdomen2
    {
      OFFSET 0 9.964 0.2134
      CHANNELS 3 Zrotation Xrotation Yrotation
      JOINT chest
      {
        OFFSET 0 13.134 -3.2573
        CHANNELS 3 Zrotation Xrotation Yrotation
        JOINT neck
        {
          OFFSET 0 20.686 -1.6905
          CHANNELS 3 Zrotation Xrotation Yrotation
          JOINT head
          {
            OFFSET 0 7.238 -0.1237
            CHANNELS 3 Zrotation Xrotation Yrotation
            End Site
            {
              OFFSET 0 0 0
            }
          }
        }
        JOINT lCollar
        {
          OFFSET 1.7069 20.075 5.0056
          CHANNELS 3 Zrotation Xrotation Yrotation
          JOINT lShldr
          {
            OFFSET 13.6458 -0.047 -4.849
            CHANNELS 3 Zrotation Xrotation Yrotation
            JOINT lForeArm
            {
              OFFSET 28.3255 -0.9759 2.2888
              CHANNELS 3 Zrotation Xrotation Yrotation
              JOINT lHand
              {
                OFFSET 22.1583 -0.53 10.8316
                CHANNELS 3 Zrotation Xrotation Yrotation
                JOINT lThumb1
                {
                  OFFSET 0.786 0.112 2.5817
                  CHANNELS 3 Zrotation Xrotation Yrotation
                  JOINT lThumb2
                  {
                    OFFSET 0.3601 -0.878 4.2331
                    CHANNELS 3 Zrotation Xrotation Yrotation
                    JOINT lThumb2_End
                    {
                      OFFSET 1.8127 -1.216 2.2227
                      CHANNELS 3 Zrotation Xrotation Yrotation
                      End Site
                      {
                        OFFSET 0.0181 -0.0122 0.0222
                      }
                    }
                  }
                }
                JOINT lCarpal1
                {
                  OFFSET 0.9571 1.114 1.7695
                  CHANNELS 3 Zrotation Xrotation Yrotation
                  JOINT lIndex1
                  {
                    OFFSET 4.1246 0.487 4.1451
                    CHANNELS 3 Zrotation Xrotation Yrotation
                    JOINT lIndex2
                    {
                      OFFSET 3.4052 -1.454 2.7682
                      CHANNELS 3 Zrotation Xrotation Yrotation
                      JOINT lIndex2_End
                      {
                        OFFSET 1.4531 -1.795 1.2713
                        CHANNELS 3 Zrotation Xrotation Yrotation
                        End Site
                        {
                          OFFSET 0.0145 -0.0179 0.0127
                        }
                      }
                    }
                  }
                  JOINT lMid1
                  {
                    OFFSET 5.6954 0.21 2.1184
                    CHANNELS 3 Zrotation Xrotation Yrotation
                    JOINT lMid2
                    {
                      OFFSET 3.9766 -1.54 2.3863
                      CHANNELS 3 Zrotation Xrotation Yrotation
                      JOINT lMid2_End
                      {
                        OFFSET 1.4042 -1.926 1.125
                        CHANNELS 3 Zrotation Xrotation Yrotation
                        End Site
                        {
                          OFFSET 0.014 -0.0193 0.0113
                        }
                      }
                    }
                  }
                }
                JOINT lCarpal2
                {
                  OFFSET 2.0956 0.66 -0.3894
                  CHANNELS 3 Zrotation Xrotation Yrotation
                  JOINT lRing1
                  {
                    OFFSET 5.0395 -0.09 2.4971
                    CHANNELS 3 Zrotation Xrotation Yrotation
                    JOINT lRing2
                    {
                      OFFSET 3.7921 -1.552 1.4806
                      CHANNELS 3 Zrotation Xrotation Yrotation
                      JOINT lRing2_End
                      {
                        OFFSET 1.4655 -1.808 0.9609
                        CHANNELS 3 Zrotation Xrotation Yrotation
                        End Site
                        {
                          OFFSET 0.0147 -0.0181 0.0096
                        }
                      }
                    }
                  }
                  JOINT lPinky1
                  {
                    OFFSET 4.9141 -1.269 0.3591
                    CHANNELS 3 Zrotation Xrotation Yrotation
                    JOINT lPinky2
                    {
                      OFFSET 3.1477 -1.685 0.8462
                      CHANNELS 3 Zrotation Xrotation Yrotation
                      JOINT lPinky2_End
                      {
                        OFFSET 0.8055 -1.585 0.7955
                        CHANNELS 3 Zrotation Xrotation Yrotation
                        End Site
                        {
                          OFFSET 0.0081 -0.0158 0.008
                        }
                      }
                    }
                  }
                }
              }
            }
          }
        }
        JOINT rCollar
        {
          OFFSET -1.7069 20.075 5.0056
          CHANNELS 3 Zrotation Xrotation Yrotation
          JOINT rShldr
          {
            OFFSET -13.6458 -0.047 -4.849
            CHANNELS 3 Zrotation Xrotation Yrotation
            JOINT rForeArm
            {
              OFFSET -28.3255 -0.9759 2.2888
              CHANNELS 3 Zrotation Xrotation Yrotation
              JOINT rHand
              {
                OFFSET -22.1583 -0.53 10.8316
                CHANNELS 3 Zrotation Xrotation Yrotation
                JOINT rThumb1
                {
                  OFFSET -0.786 0.112 2.5817
                  CHANNELS 3 Zrotation Xrotation Yrotation
                  JOINT rThumb2
                  {
                    OFFSET -0.3601 -0.878 4.2331
                    CHANNELS 3 Zrotation Xrotation Yrotation
                    JOINT rThumb2_End
                    {
                      OFFSET -1.8127 -1.216 2.2227
                      CHANNELS 3 Zrotation Xrotation Yrotation
                      End Site
                      {
                        OFFSET -0.0181 -0.0122 0.0222
                      }
                    }
                  }
                }
                JOINT rCarpal1
                {
                  OFFSET -0.9571 1.114 1.7695
                  CHANNELS 3 Zrotation Xrotation Yrotation
                  JOINT rIndex1
                  {
                    OFFSET -4.1246 0.487 4.1451
                    CHANNELS 3 Zrotation Xrotation Yrotation
                    JOINT rIndex2
                    {
                      OFFSET -3.4052 -1.454 2.7682
                      CHANNELS 3 Zrotation Xrotation Yrotation
                      JOINT rIndex2_End
                      {
                        OFFSET -1.4531 -1.795 1.2713
                        CHANNELS 3 Zrotation Xrotation Yrotation
                        End Site
                        {
                          OFFSET -0.0145 -0.018 0.0127
                        }
                      }
                    }
                  }
                  JOINT rMid1
                  {
                    OFFSET -5.6954 0.21 2.1184
                    CHANNELS 3 Zrotation Xrotation Yrotation
                    JOINT rMid2
                    {
                      OFFSET -3.9766 -1.54 2.3863
                      CHANNELS 3 Zrotation Xrotation Yrotation
                      JOINT rMid2_End
                      {
                        OFFSET -1.4042 -1.926 1.125
                        CHANNELS 3 Zrotation Xrotation Yrotation
                        End Site
                        {
                          OFFSET -0.014 -0.0193 0.0113
                        }
                      }
                    }
                  }
                }
                JOINT rCarpal2
                {
                  OFFSET -2.0956 0.66 -0.3894
                  CHANNELS 3 Zrotation Xrotation Yrotation
                  JOINT rRing1
                  {
                    OFFSET -5.0395 -0.09 2.4971
                    CHANNELS 3 Zrotation Xrotation Yrotation
                    JOINT rRing2
                    {
                      OFFSET -3.7921 -1.552 1.4806
                      CHANNELS 3 Zrotation Xrotation Yrotation
                      JOINT rRing2_End
                      {
                        OFFSET -1.4655 -1.808 0.9609
                        CHANNELS 3 Zrotation Xrotation Yrotation
                        End Site
                        {
                          OFFSET -0.0147 -0.0181 0.0096
                        }
                      }
                    }
                  }
                  JOINT rPinky1
                  {
                    OFFSET -4.9141 -1.269 0.3592
                    CHANNELS 3 Zrotation Xrotation Yrotation
                    JOINT rPinky2
                    {
                      OFFSET -3.1477 -1.685 0.8462
                      CHANNELS 3 Zrotation Xrotation Yrotation
                      JOINT rPinky2_End
                      {
                        OFFSET -0.8055 -1.585 0.7955
                        CHANNELS 3 Zrotation Xrotation Yrotation
                        End Site
                        {
                          OFFSET -0.0081 -0.0158 0.008
                        }
                      }
                    }
                  }
                }
              }
            }
          }
        }
      }
    }
  }
  JOINT lThigh
  {
    OFFSET 8.367 -8.2066 0.5982
    CHANNELS 3 Zrotation Xrotation Yrotation
    JOINT lShin
    {
      OFFSET 2.1923 -43.463 -0.4932
      CHANNELS 3 Zrotation Xrotation Yrotation
      JOINT lFoot
      {
        OFFSET 0.7333 -45.8593 -2.6451
        CHANNELS 3 Zrotation Xrotation Yrotation
        End Site
        {
          OFFSET 2.6618 -4.2699 12.3931
        }
      }
    }
  }
  JOINT rThigh
  {
    OFFSET -8.367 -8.2066 0.5982
    CHANNELS 3 Zrotation Xrotation Yrotation
    JOINT rShin
    {
      OFFSET -2.1923 -43.463 -0.4931
      CHANNELS 3 Zrotation Xrotation Yrotation
      JOINT rFoot
      {
        OFFSET -0.7333 -45.8593 -2.6451
        CHANNELS 3 Zrotation Xrotation Yrotation
        End Site
        {
          OFFSET -2.6618 -4.2699 12.3931
        }
      }
    }
  }
}
MOTION
Frames:	4
Frame Time:	0.0333333
0 91.7903 2.51682 0 0 -0 0 0 -0 0 0 -0 0 0 -0 0 0 -0 0 0 -0 0 0 -0 1.66051 0.0835086 5.75766 -0.0175111 0.895433 15.7816 7.95139e-016 -1.98785e-016 -0 5.46658e-016 -3.97569e-016 -0 5.96354e-016 0 -0 3.97569e-016 1.98785e-016 9.54166e-015 1.49089e-016 -3.97569e-016 -0 6.4605e-016 0 3.18055e-015 5.96354e-016 0 3.18055e-015 8.94531e-016 -1.98785e-016 6.36111e-015 6.4605e-016 0 3.18055e-015 5.96354e-016 0 3.18055e-015 8.94531e-016 -1.98785e-016 6.36111e-015 1.49089e-016 -3.97569e-016 -0 6.4605e-016 0 3.18055e-015 5.96354e-016 0 3.18055e-015 8.94531e-016 -1.98785e-016 6.36111e-015 6.4605e-016 0 3.18055e-015 5.96354e-016 0 3.18055e-015 8.94531e-016 -1.98785e-016 6.36111e-015 0 0 -0 -1.4496 0.0636048 -5.0245 -1.74811 1.20616 -16.8394 -1.19271e-015 1.98785e-016 -3.18055e-015 -3.97569e-016 1.98785e-016 -3.18055e-015 -2.98177e-016 1.98785e-016 -3.18055e-015 -2.98177e-016 3.97569e-016 -0 4.96962e-016 0 -6.36111e-015 -9.93923e-017 3.97569e-016 -0 -8.94531e-016 5.96354e-016 -0 -3.97569e-016 3.97569e-016 -0 -9.93923e-017 3.97569e-016 -0 -8.94531e-016 5.96354e-016 -0 -3.97569e-016 3.97569e-016 -0 4.96962e-016 0 -6.36111e-015 -9.93923e-017 3.97569e-016 -0 -8.94531e-016 5.96354e-016 -0 -3.97569e-016 3.97569e-016 -0 -9.93923e-017 3.97569e-016 -0 -8.94531e-016 5.96354e-016 -0 -3.97569e-016 3.97569e-016 -0 -4.66111 -0.998717 0.12318 0.00986924 1.54847 0.176523 4.65186 -0.572283 -0.254274 4.66111 -0.998765 -0.123176 -0.00986867 1.54869 -0.176537 -4.65186 -0.572453 0.25427 
-2.32026 47.9122 35.1477 26.2367 -47.2276 -4.16773e-007 -4.82668 1.6283 -2.09407 -9.597 3.42607 -4.0463 -9.59701 3.42606 -4.0463 -11.1175 0.0638727 -7.8799 -0.66503 -1.03693 15.3444 -3.08434 -0.714704 -12.693 -18.571 -32.7741 20.5721 -9.27989 -15.3257 8.38467 11.3463 15.7545 -11.5199 1.37156e-006 -9.16942e-007 2.90022e-006 -7.06225e-031 -6.36111e-015 -6.36111e-015 6.43779e-007 1.98327e-006 3.81716e-006 3.18055e-015 0 6.36111e-015 1.37156e-006 -9.16942e-007 2.90022e-006 -2.11868e-030 -9.54166e-015 -1.27222e-014 6.43779e-007 1.98327e-006 3.81716e-006 1.37156e-006 -9.16942e-007 2.90022e-006 -2.11868e-030 -9.54166e-015 -1.27222e-014 6.43779e-007 1.98327e-006 3.81716e-006 3.18055e-015 0 6.36111e-015 1.37156e-006 -9.16942e-007 2.90022e-006 -2.11868e-030 -9.54166e-015 -1.27222e-014 6.43779e-007 1.98327e-006 3.81716e-006 1.37156e-006 -9.16942e-007 2.90022e-006 -2.11868e-030 -9.54166e-015 -1.27222e-014 6.43779e-007 1.98327e-006 3.81716e-006 0.154353 1.89561 -15.4147 -1.38327 16.486 9.62308 -27.185 -16.213 13.4946 0.701112 6.19477 2.04862 0 1.59028e-015 -0 -3.97569e-015 4.77083e-015 -0 -5.56597e-015 3.18055e-015 3.18055e-015 0 0 -0 -2.38542e-015 1.59028e-015 3.18055e-015 -2.38542e-015 4.77083e-015 -0 -1.59028e-015 -1.59028e-015 -3.18055e-015 -2.38542e-015 1.59028e-015 3.18055e-015 -2.38542e-015 4.77083e-015 -0 -1.59028e-015 -1.59028e-015 -3.18055e-015 0 0 -0 -2.38542e-015 1.59028e-015 3.18055e-015 -2.38542e-015 4.77083e-015 -0 -1.59028e-015 -1.59028e-015 -3.18055e-015 -2.38542e-015 1.59028e-015 3.18055e-015 -2.38542e-015 4.77083e-015 -0 -1.59028e-015 -1.59028e-015 -3.18055e-015 -8.4252 -29.4408 27.2659 2.81547 50.62 -1.44086 7.61818 3.37088 -4.59871 -19.4148 -32.7545 -22.133 3.33481 37.3074 -8.17281 6.61588 8.40258 -2.23172 
0.758752 8.663 67.5072 48.1179 -86.6151 1.8822e-005 -8.75214 2.61574 -3.93143 -17.3372 5.79402 -7.43215 -17.3372 5.79403 -7.43215 -20.3765 0.170774 -14.4297 -0.838156 -1.7083 28.1531 -5.89246 -1.23424 -23.2828 -14.9238 -54.6689 47.2405 -20.7947 -27.86 0.578435 26.1019 25.4652 -23.9435 1.00654e-005 -3.07258e-006 -6.28747e-006 -7.95139e-016 2.08724e-015 1.59028e-015 1.85008e-006 -2.25758e-006 -1.27342e-006 8.27607e-033 2.98177e-016 -1.59028e-015 1.00654e-005 -3.07258e-006 -6.28747e-006 -1.59028e-015 2.08724e-015 4.77083e-015 1.85008e-006 -2.25758e-006 -1.27342e-006 1.00654e-005 -3.07258e-006 -6.28747e-006 -1.59028e-015 2.08724e-015 4.77083e-015 1.85008e-006 -2.25758e-006 -1.27342e-006 8.27607e-033 2.98177e-016 -1.59028e-015 1.00654e-005 -3.07258e-006 -6.28747e-006 -1.59028e-015 2.08724e-015 4.77083e-015 1.85008e-006 -2.25758e-006 -1.27342e-006 1.00654e-005 -3.07258e-006 -6.28747e-006 -1.59028e-015 2.08724e-015 4.77083e-015 1.85008e-006 -2.25758e-006 -1.27342e-006 1.03363 3.176 -28.3019 -8.21815 27.8053 24.3442 -38.8969 -20.6573 40.9777 1.01092 11.2466 3.95887 0 1.98785e-016 -0 1.98785e-016 0 3.18055e-015 9.93923e-017 3.97569e-016 -0 -9.93923e-017 0 -3.18055e-015 1.98785e-016 5.96354e-016 1.27222e-014 4.96962e-016 7.95139e-016 3.18055e-015 3.97569e-016 9.93923e-016 3.18055e-015 1.98785e-016 5.96354e-016 1.27222e-014 4.96962e-016 7.95139e-016 3.18055e-015 3.97569e-016 9.93923e-016 3.18055e-015 -9.93923e-017 0 -3.18055e-015 1.98785e-016 5.96354e-016 1.27222e-014 4.96962e-016 7.95139e-016 3.18055e-015 3.97569e-016 9.93923e-016 3.18055e-015 1.98785e-016 5.96354e-016 1.27222e-014 4.96962e-016 7.95139e-016 3.18055e-015 3.97569e-016 9.93923e-016 3.18055e-015 8.91354 -40.6541 62.1307 74.3808 85.1026 -71.4649 10.9107 9.29233 -6.14052 -69.0577 -49.2232 -59.4597 26.7004 70.08 -30.5504 16.9005 14.5398 -6.3166 
1.95002 -0.649543 76.6802 -126.401 -83.518 180 -9.72083 2.80793 -4.40035 -19.2408 6.31162 -8.28056 -19.2408 6.31161 -8.28056 -22.6876 0.449812 -15.9716 -0.961773 -1.70524 31.3735 -6.6267 -1.346 -25.9363 -8.7294 -57.9538 58.3548 -24.3332 -30.7654 -1.7734 30.8905 27.4794 -27.6441 7.95139e-016 2.93207e-015 -7.95139e-016 3.97569e-016 -3.67752e-015 -0 3.97569e-016 -3.62782e-015 -2.38542e-015 7.95139e-016 2.93207e-015 -7.95139e-016 3.57812e-015 8.89561e-015 1.59028e-015 9.58645e-032 -6.90777e-015 7.95139e-016 1.19271e-015 -5.46658e-016 -0 3.57812e-015 8.89561e-015 1.59028e-015 9.58645e-032 -6.90777e-015 7.95139e-016 1.19271e-015 -5.46658e-016 -0 7.95139e-016 2.93207e-015 -7.95139e-016 3.57812e-015 8.89561e-015 1.59028e-015 9.58645e-032 -6.90777e-015 7.95139e-016 1.19271e-015 -5.46658e-016 -0 3.57812e-015 8.89561e-015 1.59028e-015 9.58645e-032 -6.90777e-015 7.95139e-016 1.19271e-015 -5.46658e-016 -0 1.34761 3.42521 -31.5359 -10.9716 30.0119 28.5693 -41.4198 -19.7317 47.6269 1.04559 12.4936 4.47113 1.93815e-015 1.98785e-016 -6.36111e-015 7.91115e-007 3.82071e-007 4.4571e-010 -1.2424e-016 7.45443e-016 6.36111e-015 1.11816e-015 9.93923e-017 -3.18055e-015 7.45443e-017 4.47266e-016 3.18055e-015 7.91115e-007 3.82071e-007 4.4571e-010 4.96962e-016 9.93923e-016 3.18055e-015 7.45443e-017 4.47266e-016 3.18055e-015 7.91115e-007 3.82071e-007 4.4571e-010 4.96962e-016 9.93923e-016 3.18055e-015 1.11816e-015 9.93923e-017 -3.18055e-015 7.45443e-017 4.47266e-016 3.18055e-015 7.91115e-007 3.82071e-007 4.4571e-010 4.96962e-016 9.93923e-016 3.18055e-015 7.45443e-017 4.47266e-016 3.18055e-015 7.91115e-007 3.82071e-007 4.4571e-010 4.96962e-016 9.93923e-016 3.18055e-015 15.6058 -40.5314 72.2717 147.876 79.9671 -143.802 11.8037 10.8762 -6.65545 -84.9327 -49.374 -71.324 47.3623 75.9556 -51.0487 19.2775 16.5665 -7.45187 
